<svg width="18" height="18" viewBox="0 0 18 18" fill="none" xmlns="http://www.w3.org/2000/svg">
<g clip-path="url(#clip0_405_69)">
<path d="M7.34778 8.07677C7.34778 8.07677 8.968 7.95805 8.968 6.0827C8.968 4.20721 7.64245 3.29194 5.96336 3.29194H0.43811V13.7724H5.96336C5.96336 13.7724 9.33632 13.8776 9.33632 10.6791C9.33632 10.6791 9.48337 8.07677 7.34778 8.07677V8.07677ZM5.56566 5.15473H5.96336C5.96336 5.15473 6.7144 5.15473 6.7144 6.24517C6.7144 7.33549 6.27271 7.49357 5.77171 7.49357H2.8726V5.15473H5.56566V5.15473ZM5.80722 11.9097H2.8726V9.10892H5.96336C5.96336 9.10892 7.08275 9.09443 7.08275 10.5482C7.08275 11.7741 6.24667 11.9004 5.80722 11.9097V11.9097ZM13.8347 5.95848C9.75141 5.95848 9.75503 9.9854 9.75503 9.9854C9.75503 9.9854 9.47486 13.9916 13.8347 13.9916C13.8347 13.9916 17.4679 14.1965 17.4679 11.2047H15.5994C15.5994 11.2047 15.6618 12.3314 13.8971 12.3314C13.8971 12.3314 12.0283 12.455 12.0283 10.508H17.5303C17.5303 10.508 18.1323 5.95848 13.8347 5.95848ZM12.0077 9.10892C12.0077 9.10892 12.2359 7.49354 13.8763 7.49354C15.5163 7.49354 15.4957 9.10892 15.4957 9.10892H12.0077ZM15.931 5.19997H11.5503V3.90937H15.931V5.19997Z" fill="white"/>
</g>
<defs>
<clipPath id="clip0_405_69">
<rect width="17.1242" height="17.1242" fill="white" transform="translate(0.437866 0.437908)"/>
</clipPath>
</defs>
</svg>
