<svg width="27" height="26" viewBox="0 0 27 26" fill="none" xmlns="http://www.w3.org/2000/svg">
<path d="M2.30304 12.0454H24.7879" stroke="#6D737A" stroke-width="1.60606" stroke-linecap="round" stroke-linejoin="round"/>
<path d="M23.1818 18.4697V20.8788C23.1818 21.0918 23.0972 21.296 22.9466 21.4466C22.796 21.5972 22.5918 21.6818 22.3788 21.6818H19.9697C19.7567 21.6818 19.5525 21.5972 19.4019 21.4466C19.2513 21.296 19.1667 21.0918 19.1667 20.8788V18.4697" stroke="#6D737A" stroke-width="1.60606" stroke-linecap="round" stroke-linejoin="round"/>
<path d="M7.92421 18.4697V20.8788C7.92421 21.0918 7.8396 21.296 7.68901 21.4466C7.53841 21.5972 7.33416 21.6818 7.12118 21.6818H4.71209C4.49911 21.6818 4.29486 21.5972 4.14426 21.4466C3.99366 21.296 3.90906 21.0918 3.90906 20.8788V18.4697" stroke="#6D737A" stroke-width="1.60606" stroke-linecap="round" stroke-linejoin="round"/>
<path d="M7.12122 15.2576H8.72728" stroke="#6D737A" stroke-width="1.60606" stroke-linecap="round" stroke-linejoin="round"/>
<path d="M18.3636 15.2576H19.9697" stroke="#6D737A" stroke-width="1.60606" stroke-linecap="round" stroke-linejoin="round"/>
<path d="M23.1818 12.0454L20.1805 5.29993C20.1182 5.15723 20.0158 5.03571 19.8857 4.95016C19.7556 4.86462 19.6034 4.81874 19.4477 4.81812H7.64315C7.48745 4.81874 7.33528 4.86462 7.20519 4.95016C7.07509 5.03571 6.97266 5.15723 6.91038 5.29993L3.90906 12.0454V18.4696H23.1818V12.0454Z" stroke="#6D737A" stroke-width="1.60606" stroke-linecap="round" stroke-linejoin="round"/>
</svg>
