<svg width="23" height="23" viewBox="0 0 23 23" fill="none" xmlns="http://www.w3.org/2000/svg">
<path d="M11.4848 18.9774C11.4848 18.9774 3.11987 14.293 3.11987 8.60488C3.11987 7.59933 3.46827 6.62483 4.10578 5.84719C4.74329 5.06955 5.63054 4.53681 6.61656 4.3396C7.60259 4.1424 8.62649 4.29291 9.51406 4.76553C10.4016 5.23816 11.098 6.0037 11.4848 6.9319V6.9319C11.8715 6.0037 12.5679 5.23816 13.4555 4.76553C14.3431 4.29291 15.367 4.1424 16.353 4.3396C17.339 4.53681 18.2263 5.06955 18.8638 5.84719C19.5013 6.62483 19.8497 7.59933 19.8497 8.60488C19.8497 14.293 11.4848 18.9774 11.4848 18.9774Z" stroke="#4A60A1" stroke-width="1.38209" stroke-linecap="round" stroke-linejoin="round"/>
</svg>
