<svg width="23" height="23" viewBox="0 0 23 23" fill="none" xmlns="http://www.w3.org/2000/svg">
<path d="M6.30293 14.293C7.78127 14.293 8.97969 13.0946 8.97969 11.6162C8.97969 10.1379 7.78127 8.93945 6.30293 8.93945C4.82459 8.93945 3.62616 10.1379 3.62616 11.6162C3.62616 13.0946 4.82459 14.293 6.30293 14.293Z" stroke="#4A60A1" stroke-width="1.38209" stroke-linecap="round" stroke-linejoin="round"/>
<path d="M15.6716 20.3157C17.15 20.3157 18.3484 19.1173 18.3484 17.6389C18.3484 16.1606 17.15 14.9622 15.6716 14.9622C14.1933 14.9622 12.9949 16.1606 12.9949 17.6389C12.9949 19.1173 14.1933 20.3157 15.6716 20.3157Z" stroke="#4A60A1" stroke-width="1.38209" stroke-linecap="round" stroke-linejoin="round"/>
<path d="M15.6716 8.27028C17.15 8.27028 18.3484 7.07185 18.3484 5.59352C18.3484 4.11518 17.15 2.91675 15.6716 2.91675C14.1933 2.91675 12.9949 4.11518 12.9949 5.59352C12.9949 7.07185 14.1933 8.27028 15.6716 8.27028Z" stroke="#4A60A1" stroke-width="1.38209" stroke-linecap="round" stroke-linejoin="round"/>
<path d="M13.4214 7.04053L8.55304 10.169" stroke="#4A60A1" stroke-width="1.38209" stroke-linecap="round" stroke-linejoin="round"/>
<path d="M8.55304 13.0635L13.4214 16.1919" stroke="#4A60A1" stroke-width="1.38209" stroke-linecap="round" stroke-linejoin="round"/>
</svg>
